<?xml version="1.0" encoding="utf-8"?>
<!-- Generator: Adobe Illustrator 24.0.2, SVG Export Plug-In . SVG Version: 6.00 Build 0)  -->
<svg version="1.1" id="Layer_1" xmlns="http://www.w3.org/2000/svg" xmlns:xlink="http://www.w3.org/1999/xlink" x="0px" y="0px"
	 viewBox="0 0 51 51" style="enable-background:new 0 0 51 51;" xml:space="preserve">
<style type="text/css">
	.st0{fill:#1F4499;}
</style>
<path class="st0" d="M31.5,25.9c-0.5,0-1,0.4-1,1c0,0.5,0.4,1,1,1s1-0.4,1-1C32.5,26.3,32,25.9,31.5,25.9z"/>
<path class="st0" d="M10.2,36.8l-10,12.6c-0.2,0.3-0.3,0.7-0.1,1.1C0.3,50.8,0.6,51,1,51h49c0.4,0,0.7-0.2,0.9-0.6
	c0.2-0.3,0.1-0.8-0.1-1.1l-10-12.6c-0.2-0.2-0.5-0.4-0.8-0.4h-8.7l7.4-11.7c1.7-2.6,2.7-5.7,2.7-8.8C41.4,7.1,34.3,0,25.5,0
	S9.6,7.1,9.6,15.9c0,3.2,0.9,6.2,2.7,8.8l7.4,11.7H11C10.7,36.5,10.4,36.6,10.2,36.8z M6.5,44.7h6L9.1,49h-6L6.5,44.7z M21,38.4
	l2.7,4.3h-7.1l3.4-4.3H21z M30,38.4H31l3.4,4.3h-7.1L30,38.4z M36,44.7l3.4,4.3H11.6l3.4-4.3H36z M41.9,49l-3.4-4.3h6l3.4,4.3H41.9z
	 M43,42.7h-6l-3.4-4.3h6L43,42.7z M13.9,23.7c-1.5-2.3-2.3-5-2.3-7.7C11.6,8.2,17.8,2,25.5,2s13.9,6.3,13.9,13.9
	c0,2.8-0.8,5.4-2.3,7.7c0,0,0,0,0,0c-0.7,1-11.1,17.4-11.6,18.2C24.2,39.9,15.2,25.7,13.9,23.7C13.9,23.7,13.9,23.7,13.9,23.7z
	 M17.5,38.4l-3.4,4.3H8l3.4-4.3H17.5z"/>
<path class="st0" d="M25.5,25.9c5.5,0,10-4.4,10-10c0-5.5-4.5-10-10-10s-10,4.5-10,10C15.5,21.5,20,25.9,25.5,25.9z M25.5,8
	c4.4,0,8,3.6,8,8c0,4.4-3.6,8-8,8c-4.4,0-8-3.5-8-8C17.5,11.5,21.1,8,25.5,8z"/>
<path class="st0" d="M29.7,29.3c-0.5-0.3-1.1-0.1-1.4,0.3l-3.7,6.1c-0.3,0.5-0.1,1.1,0.3,1.4c0.5,0.3,1.1,0.1,1.4-0.3l3.7-6.1
	C30.3,30.2,30.2,29.6,29.7,29.3z"/>
</svg>
