<?xml version="1.0" encoding="utf-8"?>
<!-- Generator: Adobe Illustrator 24.0.2, SVG Export Plug-In . SVG Version: 6.00 Build 0)  -->
<svg version="1.1" id="Capa_1" xmlns="http://www.w3.org/2000/svg" xmlns:xlink="http://www.w3.org/1999/xlink" x="0px" y="0px"
	 viewBox="0 0 53 50.3" style="enable-background:new 0 0 53 50.3;" xml:space="preserve">
<style type="text/css">
	.st0{fill:#1F4499;}
</style>
<g>
	<g>
		<g>
			<path class="st0" d="M50.7,0h-37c-1.2,0-2.3,1-2.3,2.3v10.2L9.8,9.9C9,8.8,7.4,8.4,6.2,9.1l-3.5,2.1c-1.1,0.7-2,1.8-2.3,3
				c-1.3,4.6-0.3,12.6,11.4,24.3c9.3,9.3,16.2,11.8,21,11.8c1.1,0,2.2-0.1,3.3-0.4c1.3-0.4,2.4-1.2,3-2.3l2.1-3.5
				c0.7-1.2,0.4-2.8-0.8-3.5L32.1,35c-1.1-0.8-2.7-0.5-3.5,0.6l-2.4,3.1c-0.3,0.3-0.7,0.4-1.1,0.2l-0.5-0.3
				c-1.5-0.8-3.4-1.9-7.2-5.7c-0.4-0.4-0.8-0.8-1.1-1.2h34.5c1.2,0,2.2-1,2.3-2.2V2.3C53,1,52,0,50.7,0z M23.7,40.2l0.4,0.2
				c1.1,0.6,2.5,0.3,3.3-0.7l2.4-3.1c0.3-0.4,0.8-0.4,1.1-0.2l8.3,5.6c0.4,0.3,0.5,0.8,0.3,1.1l-2.1,3.5c-0.4,0.7-1.1,1.3-2,1.5
				c-4.2,1.1-11.5,0.2-22.6-10.9S1,18.9,2.1,14.7c0.2-0.8,0.8-1.5,1.5-2l3.5-2.1c0.4-0.2,0.9-0.1,1.1,0.3l5.6,8.3
				c0.2,0.4,0.2,0.9-0.2,1.1l-3.1,2.4c-1,0.8-1.3,2.2-0.7,3.3l0.2,0.4c0.9,1.6,2,3.6,6,7.6C20.1,38.2,22.1,39.3,23.7,40.2z
				 M51.2,29.6c0,0.3-0.2,0.5-0.5,0.5H14.6c-1.1-1.3-2.1-2.8-2.9-4.3l-0.3-0.5c-0.2-0.4-0.1-0.8,0.2-1.1l3.1-2.4
				c1.1-0.8,1.3-2.4,0.6-3.5l-2.1-3.2V2.3c0-0.1,0-0.3,0.1-0.3c0.1-0.1,0.2-0.1,0.3-0.1h37c0.1,0,0.3,0,0.3,0.1
				c0.1,0.1,0.1,0.2,0.1,0.3L51.2,29.6L51.2,29.6z"/>
			<path class="st0" d="M47.7,4.1L32.9,15.3c-0.4,0.3-1,0.3-1.4,0L16.8,4.1c-0.4-0.3-0.9-0.2-1.2,0.2c-0.3,0.4-0.2,0.9,0.2,1.2
				l14.8,11.2c1.1,0.8,2.5,0.8,3.5,0L48.8,5.5c0.2-0.1,0.3-0.4,0.3-0.6s0-0.5-0.2-0.7C48.6,3.9,48.1,3.8,47.7,4.1z"/>
			<path class="st0" d="M24.7,16.8l-9.1,9.7c-0.3,0.4-0.3,0.9,0,1.2c0.4,0.3,0.9,0.3,1.2,0L26,18c0.3-0.4,0.3-0.9-0.1-1.2
				C25.6,16.4,25,16.4,24.7,16.8z"/>
			<path class="st0" d="M39.8,16.8c-0.3-0.4-0.9-0.4-1.2,0c-0.4,0.3-0.4,0.9,0,1.2l9,9.7c0.3,0.4,0.9,0.4,1.2,0
				c0.4-0.3,0.4-0.9,0-1.2L39.8,16.8z"/>
		</g>
	</g>
</g>
</svg>
