<?xml version="1.0" encoding="utf-8"?>
<!-- Generator: Adobe Illustrator 24.1.0, SVG Export Plug-In . SVG Version: 6.00 Build 0)  -->
<svg version="1.1" id="Capa_1" xmlns="http://www.w3.org/2000/svg" xmlns:xlink="http://www.w3.org/1999/xlink" x="0px" y="0px"
	 viewBox="0 0 18.1 20" style="enable-background:new 0 0 18.1 20;" xml:space="preserve">
<g>
	<path d="M13.6,1.8L5.5,9.9C5.4,10,5.4,10,5.4,10.1l-0.7,2.7c0,0.2,0,0.4,0.1,0.5c0.1,0.1,0.2,0.1,0.4,0.1c0,0,0.1,0,0.1,0L8,12.7
		c0.1,0,0.2-0.1,0.2-0.1l8.1-8.1c0,0,0,0,0,0s0,0,0,0l1.6-1.6c0.2-0.2,0.2-0.5,0-0.7l-2-2C15.8,0.1,15.7,0,15.6,0
		c-0.1,0-0.3,0.1-0.4,0.1L13.6,1.8C13.6,1.8,13.6,1.8,13.6,1.8C13.6,1.8,13.6,1.8,13.6,1.8z M7.6,11.8l-1.7,0.4l0.4-1.7l7.6-7.6
		l1.3,1.3L7.6,11.8z M15.6,1.2l1.3,1.3l-0.9,0.9l-1.3-1.3L15.6,1.2z"/>
	<path d="M17.6,5.5c-0.3,0-0.5,0.2-0.5,0.5V19H1v-16h9.5c0.3,0,0.5-0.2,0.5-0.5s-0.2-0.5-0.5-0.5h-10C0.2,1.9,0,2.1,0,2.4v17.1
		C0,19.8,0.2,20,0.5,20h17.1c0.3,0,0.5-0.2,0.5-0.5V6C18.1,5.8,17.8,5.5,17.6,5.5z"/>
</g>
</svg>
