<?xml version="1.0" encoding="utf-8"?>
<!-- Generator: Adobe Illustrator 24.1.0, SVG Export Plug-In . SVG Version: 6.00 Build 0)  -->
<svg version="1.1" id="Capa_1" xmlns="http://www.w3.org/2000/svg" xmlns:xlink="http://www.w3.org/1999/xlink" x="0px" y="0px"
	 viewBox="0 0 20 20" style="enable-background:new 0 0 20 20;" xml:space="preserve">
<g>
	<g>
		<path d="M17.9,0H2.1C1,0,0,1,0,2.1v15.7C0,19,1,20,2.1,20h15.7c1.2,0,2.1-1,2.1-2.1V2.1C20,1,19,0,17.9,0z M18.6,17.9
			c0,0.4-0.3,0.7-0.7,0.7H2.1c-0.4,0-0.7-0.3-0.7-0.7V2.1c0-0.4,0.3-0.7,0.7-0.7h15.7c0.4,0,0.7,0.3,0.7,0.7L18.6,17.9L18.6,17.9z"
			/>
	</g>
</g>
<g>
	<g>
		<path d="M6.4,4.3H4.3C3.9,4.3,3.6,4.6,3.6,5s0.3,0.7,0.7,0.7h2.1c0.4,0,0.7-0.3,0.7-0.7C7.1,4.6,6.8,4.3,6.4,4.3z"/>
	</g>
</g>
<g>
	<g>
		<path d="M15.7,4.3H9.3C8.9,4.3,8.6,4.6,8.6,5s0.3,0.7,0.7,0.7h6.4c0.4,0,0.7-0.3,0.7-0.7C16.4,4.6,16.1,4.3,15.7,4.3z"/>
	</g>
</g>
<g>
	<g>
		<path d="M6.4,9.3H4.3c-0.4,0-0.7,0.3-0.7,0.7c0,0.4,0.3,0.7,0.7,0.7h2.1c0.4,0,0.7-0.3,0.7-0.7S6.8,9.3,6.4,9.3z"/>
	</g>
</g>
<g>
	<g>
		<path d="M15.7,9.3H9.3c-0.4,0-0.7,0.3-0.7,0.7c0,0.4,0.3,0.7,0.7,0.7h6.4c0.4,0,0.7-0.3,0.7-0.7S16.1,9.3,15.7,9.3z"/>
	</g>
</g>
<g>
	<g>
		<path d="M6.4,14.3H4.3c-0.4,0-0.7,0.3-0.7,0.7c0,0.4,0.3,0.7,0.7,0.7h2.1c0.4,0,0.7-0.3,0.7-0.7C7.1,14.6,6.8,14.3,6.4,14.3z"/>
	</g>
</g>
<g>
	<g>
		<path d="M15.7,14.3H9.3c-0.4,0-0.7,0.3-0.7,0.7c0,0.4,0.3,0.7,0.7,0.7h6.4c0.4,0,0.7-0.3,0.7-0.7C16.4,14.6,16.1,14.3,15.7,14.3z"
			/>
	</g>
</g>
</svg>
