<?xml version="1.0" encoding="UTF-8"?>
<svg xmlns="http://www.w3.org/2000/svg" xmlns:xlink="http://www.w3.org/1999/xlink" viewBox="0 0 50 50" width="50px" height="50px">
<g id="surface41700931">
<path style=" stroke:none;fill-rule:nonzero;fill:rgb(90.588236%,29.803923%,23.529412%);fill-opacity:1;" d="M 22.199219 7.5 C 21.046875 7.5 20.101562 8.449219 20.101562 9.601562 L 20.101562 11 L 14.632812 11 C 14.542969 10.984375 14.457031 10.984375 14.367188 11 L 13.101562 11 C 13.078125 11 13.054688 11 13.035156 11 C 12.648438 11.019531 12.347656 11.347656 12.367188 11.734375 C 12.386719 12.117188 12.714844 12.417969 13.101562 12.398438 L 13.867188 12.398438 L 16.382812 40.75 C 16.46875 41.730469 17.304688 42.5 18.285156 42.5 L 31.714844 42.5 C 32.695312 42.5 33.53125 41.730469 33.617188 40.75 L 36.132812 12.398438 L 36.898438 12.398438 C 37.152344 12.402344 37.386719 12.273438 37.515625 12.054688 C 37.640625 11.835938 37.640625 11.566406 37.515625 11.347656 C 37.386719 11.128906 37.152344 10.996094 36.898438 11 L 29.898438 11 L 29.898438 9.601562 C 29.898438 8.449219 28.949219 7.5 27.800781 7.5 Z M 22.199219 8.898438 L 27.800781 8.898438 C 28.195312 8.898438 28.5 9.207031 28.5 9.601562 L 28.5 11 L 21.5 11 L 21.5 9.601562 C 21.5 9.207031 21.804688 8.898438 22.199219 8.898438 Z M 15.265625 12.398438 L 34.734375 12.398438 L 32.21875 40.640625 C 32.195312 40.882812 31.9375 41.101562 31.714844 41.101562 L 18.285156 41.101562 C 18.0625 41.101562 17.804688 40.882812 17.78125 40.640625 Z M 20.734375 14.476562 C 20.703125 14.484375 20.675781 14.492188 20.648438 14.5 C 20.320312 14.574219 20.09375 14.867188 20.101562 15.199219 L 20.101562 38.300781 C 20.097656 38.550781 20.226562 38.785156 20.445312 38.914062 C 20.664062 39.042969 20.933594 39.042969 21.152344 38.914062 C 21.371094 38.785156 21.503906 38.550781 21.5 38.300781 L 21.5 15.199219 C 21.507812 14.996094 21.425781 14.804688 21.28125 14.667969 C 21.132812 14.527344 20.933594 14.460938 20.734375 14.476562 Z M 24.933594 14.476562 C 24.902344 14.484375 24.875 14.492188 24.847656 14.5 C 24.519531 14.574219 24.292969 14.867188 24.300781 15.199219 L 24.300781 38.300781 C 24.296875 38.550781 24.429688 38.785156 24.648438 38.914062 C 24.867188 39.042969 25.132812 39.042969 25.351562 38.914062 C 25.570312 38.785156 25.703125 38.550781 25.699219 38.300781 L 25.699219 15.199219 C 25.707031 14.996094 25.625 14.804688 25.480469 14.667969 C 25.332031 14.527344 25.132812 14.460938 24.933594 14.476562 Z M 29.132812 14.476562 C 29.105469 14.484375 29.074219 14.492188 29.046875 14.5 C 28.722656 14.574219 28.492188 14.867188 28.5 15.199219 L 28.5 38.300781 C 28.496094 38.550781 28.628906 38.785156 28.847656 38.914062 C 29.066406 39.042969 29.332031 39.042969 29.550781 38.914062 C 29.769531 38.785156 29.902344 38.550781 29.898438 38.300781 L 29.898438 15.199219 C 29.90625 14.996094 29.824219 14.804688 29.679688 14.667969 C 29.535156 14.527344 29.332031 14.460938 29.132812 14.476562 Z M 29.132812 14.476562 "/>
</g>
</svg>
