<?xml version="1.0" encoding="utf-8"?>
<!-- Generator: Adobe Illustrator 24.1.0, SVG Export Plug-In . SVG Version: 6.00 Build 0)  -->
<svg version="1.1" id="Capa_1" xmlns="http://www.w3.org/2000/svg" xmlns:xlink="http://www.w3.org/1999/xlink" x="0px" y="0px"
	 viewBox="0 0 41 39" style="enable-background:new 0 0 41 39;" xml:space="preserve">
<g>
	<path d="M8.5,6.4C8.1,6.4,7.8,6.7,7.8,7v0.5c0,0.3,0.3,0.6,0.6,0.6s0.6-0.3,0.6-0.6V7C9.1,6.7,8.8,6.4,8.5,6.4z"/>
	<path d="M8.5,8.8c-0.3,0-0.6,0.3-0.6,0.6v0.5c0,0.3,0.3,0.6,0.6,0.6s0.6-0.3,0.6-0.6V9.4C9.1,9.1,8.8,8.8,8.5,8.8z"/>
	<path d="M6,15.3v-0.5c0-0.3-0.3-0.6-0.6-0.6c-0.3,0-0.6,0.3-0.6,0.6v0.5c0,0.3,0.3,0.6,0.6,0.6C5.7,15.9,6,15.6,6,15.3z"/>
	<path d="M9.1,15.3v-0.5c0-0.3-0.3-0.6-0.6-0.6s-0.6,0.3-0.6,0.6v0.5c0,0.3,0.3,0.6,0.6,0.6S9.1,15.6,9.1,15.3z"/>
	<path d="M11.5,15.9c0.3,0,0.6-0.3,0.6-0.6v-0.5c0-0.3-0.3-0.6-0.6-0.6s-0.6,0.3-0.6,0.6v0.5C10.9,15.6,11.2,15.9,11.5,15.9z"/>
	<path d="M40.4,35c-2.7,0-2.9-1.8-5.5-2.3c0.7-3.6,3.2-6.7,5.9-9.1c0.2-0.2,0.2-0.4,0.2-0.7c-0.1-0.2-0.3-0.4-0.6-0.4h-0.6
		c0-0.8,0-6.6,0-7.4c0-0.3-0.3-0.6-0.6-0.6c-3.7,0-11.5,0-13.6,0c-0.3,0-0.6,0.3-0.6,0.6v3.4h-4.5V7.3l9.8-3.9V7h-2.8
		c-0.3,0-0.6,0.3-0.6,0.6v4c0,0.3,0.3,0.6,0.6,0.6h2c0.3,0,0.6-0.3,0.6-0.6S29.8,11,29.5,11h-1.4V8.2h5.6V11h-1.8
		c-0.3,0-0.6,0.3-0.6,0.6s0.3,0.6,0.6,0.6h2.4c0.3,0,0.6-0.3,0.6-0.6v-4c0-0.3-0.3-0.6-0.6-0.6h-2.8v-4l1.6-0.6
		c0.3-0.1,0.5-0.5,0.3-0.8c-0.1-0.3-0.5-0.5-0.8-0.3C30,2.3,23,5.1,20.5,6.1V5.4c0-0.5-0.2-1-0.5-1.3l-1.9-1.9
		c-0.3-0.3-0.8-0.4-1.2-0.2c-0.4,0.2-0.7,0.6-0.7,1v4.8l-1.8,0.7C14.1,8.7,13.9,9,14,9.3c0.1,0.2,0.3,0.4,0.6,0.4c0.1,0,0.2,0,0.2,0
		l1.3-0.5v13.2l-1.7-0.7v-8.5c0-0.7-0.6-1.3-1.3-1.3H12V5.6c0-0.7-0.6-1.3-1.3-1.3H9.1V2.7h0.6c0.3,0,0.6-0.3,0.6-0.6
		S10,1.5,9.6,1.5H9.1V0.6C9.1,0.3,8.8,0,8.5,0S7.8,0.3,7.8,0.6v0.9H7.3c-0.3,0-0.6,0.3-0.6,0.6s0.3,0.6,0.6,0.6h0.6v1.6H6.1
		c-0.7,0-1.3,0.6-1.3,1.3v6.3H3.8c-0.7,0-1.3,0.6-1.3,1.3V16c0,0.3,0.3,0.6,0.6,0.6s0.6-0.3,0.6-0.6v-2.9c0,0,0-0.1,0.1-0.1h9.4
		c0,0,0.1,0,0.1,0.1v8l-2.1-0.9c-0.1-0.1-0.3-0.1-0.4-0.1h0h-0.1V18c0-0.5-0.4-1-1-1H7.4c-0.5,0-1,0.4-1,1v2.1H3.7v-1.7
		c0-0.3-0.3-0.6-0.6-0.6s-0.6,0.3-0.6,0.6v1.7H0.6c-0.2,0-0.4,0.1-0.5,0.3C0,20.6,0,20.8,0,21l2.7,7L3,28.4C3,28.6,3,28.7,3,28.9
		v3.7c0,0.5,0.1,1,0.3,1.5C2.6,34.6,1.9,35,0.6,35C0.3,35,0,35.3,0,35.6c0,0.3,0.3,0.6,0.6,0.6c3.4,0,3.7-2.4,6.6-2.4
		c3,0,3.1,2.4,6.6,2.4c3.5,0,3.6-2.4,6.6-2.4c3,0,3.1,2.4,6.6,2.4c3.5,0,3.6-2.4,6.6-2.4c3,0,3.1,2.4,6.6,2.4c0.3,0,0.6-0.3,0.6-0.6
		C41,35.3,40.7,35,40.4,35L40.4,35z M6.1,11.8V5.6c0,0,0-0.1,0.1-0.1h4.6c0,0,0.1,0,0.1,0.1v6.3H6.1z M26.2,22.5v-2.8h5.6v2.8H26.2z
		 M33,19.7h5.6v2.8H33V19.7z M38.6,18.5H33v-2.8h5.6V18.5z M26.2,15.7h5.6v2.8h-5.6V15.7z M25,19.7v2.8h-4.5v-2.8H25z M17.4,3.2
		L19.1,5c0.1,0.1,0.2,0.3,0.2,0.5v17.1h-1.9V3.2z M7.6,18.2h1.8v1.9H7.6V18.2z M10.6,21.3c0.9,0.4,4.1,1.7,5.4,2.2
		c0.3,0.1,0.6,0.2,0.8,0.2h22c-1.1,1.1-2.1,2.3-2.8,3.4H3.7l-2.3-5.8H10.6z M27.1,35c-3,0-3.1-2.4-6.6-2.4c-3.5,0-3.6,2.4-6.6,2.4
		c-3,0-3.1-2.4-6.6-2.4c-1.3,0-2.2,0.4-2.9,0.8c-0.1-0.3-0.1-0.5-0.1-0.8v-1.2h20.2c0.3,0,0.6-0.3,0.6-0.6s-0.3-0.6-0.6-0.6H4.2
		v-1.4c0-0.2,0-0.4-0.1-0.6h31.2c-0.4,0.7-0.7,1.3-0.9,1.9h-7.6c-0.3,0-0.6,0.3-0.6,0.6s0.3,0.6,0.6,0.6H34
		c-0.1,0.4-0.2,0.8-0.3,1.2C30.2,32.6,30.1,35,27.1,35z"/>
	<path d="M9.8,37.8C9,37.8,8.9,37,7.6,37c-1.3,0-1.4,0.8-2.2,0.8c-0.3,0-0.6,0.3-0.6,0.6S5.1,39,5.5,39c1.3,0,1.4-0.8,2.2-0.8
		c0.8,0,0.9,0.8,2.2,0.8c0.3,0,0.6-0.3,0.6-0.6S10.1,37.8,9.8,37.8z"/>
	<path d="M22.7,37.8c-0.8,0-0.9-0.8-2.2-0.8c-1.3,0-1.4,0.8-2.2,0.8c-0.3,0-0.6,0.3-0.6,0.6S18,39,18.3,39c1.3,0,1.4-0.8,2.2-0.8
		c0.8,0,0.9,0.8,2.2,0.8c0.3,0,0.6-0.3,0.6-0.6S23,37.8,22.7,37.8z"/>
	<path d="M35,37.8c-0.8,0-0.9-0.8-2.2-0.8c-1.3,0-1.4,0.8-2.2,0.8c-0.3,0-0.6,0.3-0.6,0.6s0.3,0.6,0.6,0.6c1.3,0,1.4-0.8,2.2-0.8
		c0.8,0,0.9,0.8,2.2,0.8c0.3,0,0.6-0.3,0.6-0.6S35.3,37.8,35,37.8z"/>
	<path d="M31.7,26.1h1.1c0.3,0,0.6-0.3,0.6-0.6c0-0.3-0.3-0.6-0.6-0.6h-1.1c-0.3,0-0.6,0.3-0.6,0.6C31.1,25.8,31.4,26.1,31.7,26.1z"
		/>
</g>
</svg>
