<?xml version="1.0" encoding="utf-8"?>
<!-- Generator: Adobe Illustrator 24.1.0, SVG Export Plug-In . SVG Version: 6.00 Build 0)  -->
<svg version="1.1" id="Layer_1" xmlns="http://www.w3.org/2000/svg" xmlns:xlink="http://www.w3.org/1999/xlink" x="0px" y="0px"
	 viewBox="0 0 30 42" style="enable-background:new 0 0 30 42;" xml:space="preserve">
	 <style type="text/css">
	.st0{fill:#FFCA00;}
</style>
<g>
	<path class="st0" d="M26.1,27.7l-1.8-0.4l0,0l-4.3-0.9c0-0.2,0-0.4,0-0.6v-2c2.6-1.7,4.2-4.5,4.3-7.6v-1.6h1c0.3,0,0.6-0.3,0.6-0.6c0,0,0,0,0,0
		v-2.1c0-0.3-0.3-0.6-0.6-0.6c0,0,0,0,0,0h-0.5C24.7,6.8,21.6,3,17.3,2V0.6C17.3,0.3,17,0,16.6,0c0,0,0,0,0,0h-3.2
		c-0.3,0-0.6,0.3-0.6,0.6V2c-4.3,1-7.4,4.8-7.5,9.2H4.8c-0.3,0-0.6,0.3-0.6,0.6c0,0,0,0,0,0V14c0,0.3,0.3,0.6,0.6,0.6c0,0,0,0,0,0h1
		v1.6c0,3.1,1.6,6,4.3,7.6v2c0,0.2,0,0.4,0,0.6l-4.3,0.9h0l-1.8,0.4C1.6,28.2,0,30.2,0,32.5v8.9C0,41.7,0.3,42,0.6,42h28.7
		c0.3,0,0.6-0.3,0.6-0.6v-8.9C30,30.2,28.4,28.2,26.1,27.7z M23.5,11.2h-3V7.6c0-0.3-0.3-0.6-0.6-0.6s-0.6,0.3-0.6,0.6l0,0v3.6h-2
		V3.3C20.9,4.3,23.4,7.5,23.5,11.2z M14,1.2h2v10h-2V1.2z M12.7,3.3v7.9h-2V7.6c0-0.3-0.3-0.6-0.6-0.6C9.8,7,9.5,7.2,9.5,7.6l0,0
		v3.6h-3C6.6,7.5,9.1,4.3,12.7,3.3z M5.4,12.5h19.1v0.9H5.4V12.5z M7,16.2v-1.6H23v1.6c0,4.3-3.6,7.8-8,7.8S7,20.5,7,16.2L7,16.2z
		 M15,25.2c1.3,0,2.5-0.3,3.7-0.8v1.3c0,2-1.7,3.6-3.7,3.6s-3.7-1.6-3.7-3.6v-1.3C12.5,25,13.7,25.2,15,25.2z M1.3,32.5
		c0-1.7,1.2-3.2,2.9-3.6l1.1-0.2v12.1h-4V32.5z M6.5,28.4l3.9-0.8c0.7,1.6,2.2,2.8,4,3v10.1H6.5V28.4z M15.6,40.8V30.6
		c1.8-0.2,3.3-1.4,4-3l3.9,0.8v12.3H15.6z M28.7,40.8h-4V28.7l1.1,0.2c1.7,0.4,2.9,1.8,2.9,3.6V40.8z"/>
	<path class="st0" d="M27.2,34.5c-0.3,0-0.6,0.3-0.6,0.6c0,0,0,0,0,0v2.2c0,0.3,0.3,0.6,0.6,0.6s0.6-0.3,0.6-0.6v-2.2
		C27.8,34.8,27.6,34.5,27.2,34.5z"/>
	<path class="st0" d="M12.1,33.1H8.8c-0.3,0-0.6,0.3-0.6,0.6s0.3,0.6,0.6,0.6h3.2c0.3,0,0.6-0.3,0.6-0.6S12.4,33.1,12.1,33.1z"/>
</g>
</svg>
