<!-- Generator: Adobe Illustrator 24.1.0, SVG Export Plug-In . SVG Version: 6.00 Build 0)  -->
<svg version="1.1" id="Layer_1" xmlns="http://www.w3.org/2000/svg" xmlns:xlink="http://www.w3.org/1999/xlink" x="0px" y="0px"
	 viewBox="0 0 35 38" style="enable-background:new 0 0 35 38;" xml:space="preserve">
<style type="text/css">
	.st0{fill:#FFCA00;}
</style>
<g id="Outline">
	<path class="st0" d="M21.4,7c0-2.1-1.7-3.8-3.9-3.8S13.6,4.9,13.6,7s1.7,3.8,3.9,3.8C19.6,10.8,21.4,9.1,21.4,7z M14.9,7
		c0-1.4,1.2-2.5,2.6-2.5c1.4,0,2.6,1.1,2.6,2.5s-1.2,2.5-2.6,2.5C16.1,9.5,14.9,8.4,14.9,7z"/>
	<path class="st0" d="M17.1,17.6c0.2,0.2,0.5,0.2,0.7,0c1.2-0.9,2.4-1.9,3.4-3c2.2-2.5,3.4-5.1,3.4-7.6c0-3.8-3.2-7-7.1-7
		s-7.1,3.1-7.1,7c0,2.5,1.2,5.1,3.4,7.6C14.8,15.7,15.9,16.7,17.1,17.6L17.1,17.6z M17.5,1.3c3.2,0,5.8,2.6,5.8,5.7
		c0,4.5-4.5,8.3-5.8,9.3c-1.3-1-5.8-4.8-5.8-9.3C11.7,3.8,14.3,1.3,17.5,1.3z"/>
	<path class="st0" d="M8.9,32.9l0.4-1.2l1.3,0.4l-0.4,1.2L8.9,32.9z"/>
	<path class="st0" d="M11.5,33.7l0.4-1.2l1.3,0.4l-0.4,1.2L11.5,33.7z"/>
	<path class="st0" d="M14.1,34.5l0.4-1.2l1.3,0.4l-0.4,1.2L14.1,34.5z"/>
	<path class="st0" d="M34.5,14.6l-9.7-2.9l-0.4,1.2l7.7,2.3l-14.6,4.4L2.9,15.2l7.7-2.3l-0.4-1.2l-9.7,2.9C0.2,14.7,0,14.9,0,15.2
		v17.1c0,0.3,0.2,0.5,0.5,0.6L17.3,38c0.1,0,0.3,0,0.4,0l16.9-5.1c0.3-0.1,0.5-0.3,0.5-0.6V15.2C35,14.9,34.8,14.7,34.5,14.6
		L34.5,14.6z M1.3,16.1l15.6,4.7v15.8L1.3,31.8V16.1z M18.1,36.5V20.7l15.6-4.7v15.8L18.1,36.5z"/>
	<path class="st0" d="M25.7,31.7l1.3-0.4l0.4,1.2l-1.3,0.4L25.7,31.7z"/>
	<path class="st0" d="M28.3,30.9l1.3-0.4l0.4,1.2l-1.3,0.4L28.3,30.9z"/>
	<path class="st0" d="M30.9,30.1l1.3-0.4l0.4,1.2l-1.3,0.4L30.9,30.1z"/>
	<path class="st0" d="M12.3,25.6c0.4,0,0.6-0.3,0.6-0.6v-3.2c0-0.3-0.2-0.5-0.5-0.6L6,19.2c-0.3-0.1-0.7,0.1-0.8,0.4
		c0,0.1,0,0.1,0,0.2V23c0,0.3,0.2,0.5,0.5,0.6l6.5,1.9C12.2,25.6,12.3,25.6,12.3,25.6z M11.7,24.1l-5.2-1.6v-1.8l5.2,1.6V24.1z"/>
	<path class="st0" d="M29.8,23v-3.2c0-0.3-0.3-0.6-0.6-0.6c-0.1,0-0.1,0-0.2,0l-6.5,1.9c-0.3,0.1-0.5,0.3-0.5,0.6v3.2
		c0,0.3,0.3,0.6,0.6,0.6c0.1,0,0.1,0,0.2,0l6.5-1.9C29.6,23.5,29.8,23.3,29.8,23z M28.5,22.5l-5.2,1.6v-1.8l5.2-1.6V22.5z"/>
</g>
</svg>
