<?xml version="1.0" encoding="utf-8"?>
<!-- Generator: Adobe Illustrator 24.0.2, SVG Export Plug-In . SVG Version: 6.00 Build 0)  -->
<svg version="1.1" id="Layer_1" xmlns="http://www.w3.org/2000/svg" xmlns:xlink="http://www.w3.org/1999/xlink" x="0px" y="0px"
	 viewBox="0 0 18 18" style="enable-background:new 0 0 18 18;" xml:space="preserve">
<style type="text/css">
	.st0{fill:#FFFFFF;}
</style>
<g>
	<path class="st0" d="M15.4,2.6C13.7,0.9,11.4,0,9,0S4.3,0.9,2.6,2.6S0,6.6,0,9s0.9,4.7,2.6,6.4S6.6,18,9,18s4.7-0.9,6.4-2.6
		S18,11.4,18,9S17.1,4.3,15.4,2.6L15.4,2.6z M15.3,13.7c-0.5-0.4-1.1-0.7-1.7-0.9c0.3-1,0.4-2.1,0.4-3.2h2.8
		C16.7,11.1,16.2,12.6,15.3,13.7z M1.1,9.6h2.8c0,1.1,0.2,2.2,0.4,3.2c-0.6,0.3-1.1,0.6-1.7,0.9C1.8,12.6,1.3,11.1,1.1,9.6L1.1,9.6z
		 M2.7,4.3c0.5,0.4,1.1,0.7,1.7,0.9C4.1,6.2,4,7.3,3.9,8.4H1.1C1.3,6.9,1.8,5.4,2.7,4.3z M12.7,2.8c-0.2-0.4-0.4-0.7-0.7-1
		c1,0.4,1.8,1,2.5,1.7c-0.4,0.3-0.8,0.5-1.3,0.7C13.1,3.6,12.9,3.2,12.7,2.8z M12.2,4.5c-1,0.3-2.1,0.5-3.2,0.5S6.8,4.9,5.8,4.5
		c0.7-2,1.9-3.4,3.2-3.4S11.5,2.5,12.2,4.5L12.2,4.5z M5.1,8.4c0-1,0.2-1.9,0.4-2.8C6.6,6,7.8,6.2,9,6.2s2.4-0.2,3.5-0.6
		c0.2,0.9,0.3,1.8,0.4,2.8H5.1z M12.9,9.6c0,1-0.2,1.9-0.4,2.8c-1.1-0.4-2.3-0.6-3.5-0.6c-1.2,0-2.4,0.2-3.5,0.6
		c-0.2-0.9-0.3-1.8-0.4-2.8H12.9z M5.3,2.8C5.1,3.2,4.9,3.6,4.7,4.1C4.3,3.9,3.9,3.7,3.5,3.4C4.2,2.7,5,2.1,6,1.7
		C5.8,2,5.5,2.4,5.3,2.8z M4.7,13.9c0.2,0.5,0.4,0.9,0.6,1.4c0.2,0.4,0.4,0.7,0.7,1c-1-0.4-1.8-1-2.5-1.7
		C3.9,14.3,4.3,14.1,4.7,13.9L4.7,13.9z M5.8,13.5c1-0.3,2.1-0.5,3.2-0.5s2.2,0.2,3.2,0.5c-0.7,2-1.9,3.4-3.2,3.4S6.5,15.5,5.8,13.5
		L5.8,13.5z M12.7,15.2c0.2-0.4,0.4-0.9,0.6-1.4c0.4,0.2,0.9,0.4,1.3,0.7c-0.7,0.7-1.6,1.3-2.5,1.7C12.2,16,12.5,15.6,12.7,15.2z
		 M14.1,8.4c0-1.1-0.2-2.2-0.4-3.2c0.6-0.3,1.1-0.6,1.7-0.9c0.9,1.2,1.5,2.6,1.6,4.2H14.1z"/>
</g>
</svg>
