<svg xmlns="http://www.w3.org/2000/svg" xmlns:xlink="http://www.w3.org/1999/xlink" viewBox="0 0 32 32" width="32px" height="32px">
<g id="surface30038179">
<path style=" stroke:none;fill-rule:nonzero;fill:rgb(28.627452%,28.627452%,28.627452%);fill-opacity:1;" d="M 16 32 C 7.164062 32 0 24.835938 0 16 C 0 7.164062 7.164062 0 16 0 C 24.835938 0 32 7.164062 32 16 C 32 24.835938 24.835938 32 16 32 Z M 16 32 "/>
<path style=" stroke:none;fill-rule:nonzero;fill:rgb(100%,100%,100%);fill-opacity:1;" d="M 10.214844 6.199219 C 9.046875 6.199219 8.101562 7.144531 8.101562 8.3125 C 8.101562 9.480469 9.046875 10.445312 10.210938 10.445312 C 11.378906 10.445312 12.328125 9.480469 12.328125 8.3125 C 12.328125 7.144531 11.382812 6.199219 10.214844 6.199219 Z M 20.527344 11.800781 C 18.753906 11.800781 17.738281 12.726562 17.25 13.652344 L 17.199219 13.652344 L 17.199219 12.046875 L 13.699219 12.046875 L 13.699219 23.800781 L 17.34375 23.800781 L 17.34375 17.984375 C 17.34375 16.449219 17.460938 14.96875 19.359375 14.96875 C 21.226562 14.96875 21.253906 16.714844 21.253906 18.078125 L 21.253906 23.800781 L 24.898438 23.800781 L 24.898438 17.34375 C 24.898438 14.1875 24.222656 11.800781 20.527344 11.800781 Z M 8.390625 12.046875 L 8.390625 23.800781 L 12.039062 23.800781 L 12.039062 12.046875 Z M 8.390625 12.046875 "/>
</g>
</svg>
