<?xml version="1.0" encoding="utf-8"?>
<!-- Generator: Adobe Illustrator 24.1.0, SVG Export Plug-In . SVG Version: 6.00 Build 0)  -->
<svg version="1.1" id="Layer_1" xmlns="http://www.w3.org/2000/svg" xmlns:xlink="http://www.w3.org/1999/xlink" x="0px" y="0px"
	 viewBox="0 0 21 21" style="enable-background:new 0 0 21 21;" xml:space="preserve">
<style type="text/css">
	.st0{fill:#DF2B2B;}
</style>
<path class="st0" d="M0.7,9.8l13.2,0c0.4,0,0.7,0.3,0.7,0.7c0,0.4-0.3,0.7-0.7,0.7l-13.2,0c-0.4,0-0.7-0.3-0.7-0.7S0.3,9.8,0.7,9.8z
	"/>
<path class="st0" d="M10.3,6c0.2,0,0.4,0.1,0.5,0.2l3.7,3.8c0.3,0.3,0.3,0.7,0,1l-3.7,3.8c-0.3,0.3-0.7,0.3-1,0
	c-0.3-0.3-0.3-0.7,0-1l3.2-3.3L9.8,7.2c-0.3-0.3-0.3-0.7,0-1C9.9,6,10.1,6,10.3,6z"/>
<path class="st0" d="M11,0c5.5,0,10,4.7,10,10.5S16.5,21,11,21c-4.2,0-7.8-2.6-9.3-6.7c-0.1-0.4,0-0.8,0.4-0.9
	c0.4-0.1,0.7,0,0.9,0.4c1.3,3.5,4.5,5.8,8.1,5.8c4.8,0,8.7-4.1,8.7-9.1S15.7,1.4,11,1.4c-3.6,0-6.8,2.3-8.1,5.8
	C2.7,7.6,2.3,7.7,2,7.6C1.6,7.4,1.5,7,1.6,6.7C3.1,2.6,6.8,0,11,0z"/>
</svg>
