<svg xmlns="http://www.w3.org/2000/svg" xmlns:xlink="http://www.w3.org/1999/xlink" viewBox="0 0 50 50" width="50px" height="50px">
<g id="surface30026767">
<path style=" stroke:none;fill-rule:nonzero;fill:rgb(28.627452%,28.627452%,28.627452%);fill-opacity:1;" d="M 25 50 C 11.191406 50 0 38.808594 0 25 C 0 11.191406 11.191406 0 25 0 C 38.808594 0 50 11.191406 50 25 C 50 38.808594 38.808594 50 25 50 Z M 25 50 "/>
<path style=" stroke:none;fill-rule:nonzero;fill:rgb(100%,100%,100%);fill-opacity:1;" d="M 43.894531 14.261719 C 42.5 14.882812 41.007812 15.296875 39.4375 15.484375 C 41.042969 14.523438 42.273438 13.003906 42.847656 11.199219 C 41.351562 12.085938 39.691406 12.730469 37.925781 13.078125 C 36.511719 11.570312 34.496094 10.628906 32.269531 10.628906 C 27.988281 10.628906 24.515625 14.097656 24.515625 18.378906 C 24.515625 18.988281 24.585938 19.578125 24.71875 20.148438 C 18.273438 19.824219 12.5625 16.738281 8.738281 12.046875 C 8.070312 13.195312 7.691406 14.523438 7.691406 15.945312 C 7.691406 18.632812 9.058594 21.007812 11.140625 22.398438 C 9.867188 22.359375 8.671875 22.007812 7.625 21.429688 C 7.625 21.460938 7.625 21.492188 7.625 21.523438 C 7.625 25.28125 10.300781 28.414062 13.84375 29.128906 C 13.195312 29.304688 12.507812 29.398438 11.800781 29.398438 C 11.300781 29.398438 10.816406 29.351562 10.339844 29.257812 C 11.332031 32.335938 14.191406 34.582031 17.582031 34.644531 C 14.933594 36.722656 11.589844 37.960938 7.957031 37.960938 C 7.328125 37.960938 6.710938 37.925781 6.109375 37.851562 C 9.535156 40.054688 13.613281 41.335938 17.992188 41.335938 C 32.25 41.335938 40.046875 29.523438 40.046875 19.28125 C 40.046875 18.945312 40.039062 18.605469 40.027344 18.277344 C 41.542969 17.183594 42.855469 15.816406 43.894531 14.261719 Z M 43.894531 14.261719 "/>
</g>
</svg>
